<mxfile host="app.diagrams.net" modified="2021-09-06T06:44:22.054Z" agent="5.0 (Windows NT 10.0; Win64; x64) AppleWebKit/537.36 (KHTML, like Gecko) Chrome/92.0.4515.159 Safari/537.36" etag="ytlVfMcdreeiFwfcTCAg" version="15.0.6" type="github">
  <diagram id="qo62P2aIjddFtGgKTxTK" name="Page-1">
    <mxGraphModel dx="868" dy="450" grid="1" gridSize="10" guides="1" tooltips="1" connect="1" arrows="1" fold="1" page="1" pageScale="1" pageWidth="827" pageHeight="1169" math="0" shadow="0">
      <root>
        <mxCell id="0" />
        <mxCell id="1" parent="0" />
        <mxCell id="1PYlxKspQXzyvrgAhgwu-1" value="" style="shape=parallelogram;perimeter=parallelogramPerimeter;whiteSpace=wrap;html=1;fixedSize=1;fillColor=#f8cecc;strokeColor=#99004D;dashed=1;dashPattern=1 1;strokeWidth=7;" vertex="1" parent="1">
          <mxGeometry x="160" y="170" width="290" height="130" as="geometry" />
        </mxCell>
        <mxCell id="1PYlxKspQXzyvrgAhgwu-2" value="" style="shape=step;perimeter=stepPerimeter;whiteSpace=wrap;html=1;fixedSize=1;strokeColor=#99004D;strokeWidth=9;fontStyle=4" vertex="1" parent="1">
          <mxGeometry x="294" y="440" width="120" height="80" as="geometry" />
        </mxCell>
        <mxCell id="1PYlxKspQXzyvrgAhgwu-3" value="" style="endArrow=classic;startArrow=classic;html=1;exitX=0.5;exitY=0;exitDx=0;exitDy=0;entryX=0.652;entryY=1;entryDx=0;entryDy=0;entryPerimeter=0;" edge="1" parent="1" source="1PYlxKspQXzyvrgAhgwu-2" target="1PYlxKspQXzyvrgAhgwu-1">
          <mxGeometry width="50" height="50" relative="1" as="geometry">
            <mxPoint x="390" y="350" as="sourcePoint" />
            <mxPoint x="440" y="300" as="targetPoint" />
          </mxGeometry>
        </mxCell>
        <mxCell id="1PYlxKspQXzyvrgAhgwu-4" value="" style="ellipse;whiteSpace=wrap;html=1;strokeColor=#99004D;strokeWidth=9;" vertex="1" parent="1">
          <mxGeometry x="540" y="270" width="120" height="80" as="geometry" />
        </mxCell>
      </root>
    </mxGraphModel>
  </diagram>
</mxfile>
